<svg viewBox="0 0 24 24" xmlns="http://www.w3.org/2000/svg">
	<path d="m12.992 20.912 3.5 1.838a2.131 2.131 0 0 0 3.088-2.25l-.667-3.893a2.129 2.129 0 0 1 .613-1.887l2.828-2.757a2.131 2.131 0 0 0-1.181-3.635l-3.909-.568a2.133 2.133 0 0 1-1.6-1.166l-1.753-3.538a2.131 2.131 0 0 0-3.822 0L8.341 6.6a2.133 2.133 0 0 1-1.6 1.166l-3.909.568a2.131 2.131 0 0 0-1.181 3.635l2.828 2.757a2.129 2.129 0 0 1 .613 1.887L4.42 20.5a2.131 2.131 0 0 0 3.092 2.25l3.5-1.838a2.135 2.135 0 0 1 1.98 0Z" fill="#8635ff">
	</path>
</svg>
